<?xml version="1.0" encoding="utf-8"?>
<!-- Generator: Adobe Illustrator 25.2.0, SVG Export Plug-In . SVG Version: 6.00 Build 0)  -->
<svg version="1.1" id="Layer_1" xmlns="http://www.w3.org/2000/svg" xmlns:xlink="http://www.w3.org/1999/xlink" x="0px" y="0px"
	 viewBox="0 0 159 20.4" style="enable-background:new 0 0 159 20.4;" xml:space="preserve">
<style type="text/css">
	.st0{fill:#AAA8B0;}
	.st1{fill:#42DEB6;}
</style>
<g>
	<path class="st0" d="M154.4,19.5H137c-0.8,0-1.4-0.6-1.4-1.4c0,0,0,0,0,0l0,0c0-0.8,0.6-1.4,1.4-1.4c0,0,0,0,0,0h17.4
		c0.8,0,1.4,0.6,1.4,1.4v0l0,0C155.8,18.8,155.2,19.4,154.4,19.5z"/>
	<path class="st0" d="M157.5,14.2H137c-0.8,0-1.4-0.6-1.4-1.4c0,0,0,0,0,0l0,0c0-0.8,0.6-1.4,1.4-1.4c0,0,0,0,0,0h20.5
		c0.8,0,1.4,0.6,1.4,1.4v0l0,0C159,13.5,158.4,14.2,157.5,14.2C157.6,14.2,157.6,14.2,157.5,14.2z"/>
	<path class="st0" d="M154.4,9H137c-0.8,0-1.4-0.6-1.4-1.4c0,0,0,0,0,0l0,0c0-0.8,0.6-1.4,1.4-1.4c0,0,0,0,0,0h17.4
		c0.8,0,1.4,0.6,1.4,1.4v0l0,0C155.8,8.3,155.2,8.9,154.4,9z"/>
	<path class="st1" d="M17.3,5.4c-0.4-0.5-0.8-1-1.4-1.5c-0.5-0.4-1.1-0.8-1.7-1.1c-0.6-0.3-1.2-0.5-1.9-0.7
		c-0.6-0.2-1.3-0.2-1.9-0.2C9.6,1.9,8.9,2,8.2,2.2c-0.7,0.2-1.4,0.5-2,0.9S5.1,3.9,4.5,4.4C4,4.9,3.6,5.5,3.2,6
		C2.8,6.7,2.5,7.3,2.3,8C2.1,8.7,2,9.4,2,10.1c0,0.7,0.1,1.5,0.3,2.2c0.2,0.7,0.5,1.4,0.9,2C3.6,15,4,15.5,4.5,16
		c0.5,0.5,1.1,1,1.7,1.3s1.3,0.6,2,0.8c0.7,0.2,1.4,0.3,2.2,0.3c0.7,0,1.3-0.1,1.9-0.2c0.7-0.2,1.3-0.4,1.9-0.7s1.2-0.7,1.7-1.2
		c0.5-0.5,1-1,1.4-1.5h2.2c-0.4,0.8-1,1.6-1.6,2.3c-0.6,0.7-1.4,1.2-2.2,1.7c-0.8,0.5-1.6,0.8-2.5,1.1c-0.9,0.2-1.8,0.4-2.8,0.4
		c-0.9,0-1.9-0.1-2.7-0.4c-0.9-0.2-1.7-0.6-2.5-1c-0.7-0.5-1.4-1-2.1-1.6c-0.6-0.6-1.2-1.3-1.6-2.1c-0.5-0.7-0.8-1.6-1-2.4
		C0.1,12,0,11.1,0,10.1c0-0.9,0.1-1.8,0.4-2.7c0.2-0.8,0.6-1.6,1-2.4S2.4,3.6,3,3s1.3-1.1,2.1-1.6s1.6-0.8,2.4-1S9.3,0,10.2,0
		c1,0,2,0.1,2.9,0.4c1,0.2,1.9,0.7,2.7,1.2c0.3,0.2,0.7,0.5,1,0.7c0.7,0.6,1.3,1.2,1.8,1.9c0.2,0.3,0.5,0.7,0.6,1.1L17.3,5.4z"/>
	<path class="st1" d="M37,12.6c0,0.7-0.1,1.4-0.2,2c-0.2,0.7-0.4,1.3-0.7,1.9c-0.3,0.6-0.7,1.1-1.2,1.6c-0.9,1-2.1,1.7-3.4,2
		c-0.7,0.2-1.3,0.3-2,0.3c-0.7,0-1.3-0.1-2-0.3c-0.7-0.2-1.3-0.4-1.9-0.7C25,19,24.5,18.6,24,18.1c-0.5-0.5-0.9-1-1.2-1.5
		c-0.3-0.6-0.6-1.2-0.8-1.8c-0.2-0.7-0.3-1.3-0.3-2c0-0.7,0.1-1.4,0.3-2c0.2-0.7,0.5-1.3,0.8-1.9c0.3-0.6,0.7-1.1,1.2-1.6
		c0.5-0.5,1-0.9,1.5-1.2c0.6-0.3,1.2-0.6,1.9-0.8s1.4-0.3,2-0.3s1.3,0.1,2,0.3c0.6,0.2,1.2,0.5,1.8,0.8c0.6,0.3,1.1,0.7,1.5,1.2
		c0.5,0.5,0.9,1,1.2,1.5c0.3,0.6,0.6,1.2,0.8,1.8C36.9,11.3,37,11.9,37,12.6z M23.8,12.8c0,0.7,0.2,1.5,0.5,2.2c0.6,1.4,1.7,2.4,3,3
		c0.7,0.3,1.4,0.5,2.2,0.5c0.8,0,1.5-0.2,2.2-0.5c0.7-0.3,1.3-0.7,1.8-1.3c0.5-0.5,0.9-1.2,1.2-1.9c0.3-0.7,0.4-1.5,0.4-2.3
		c0-0.7-0.1-1.5-0.4-2.2c-0.3-0.7-0.7-1.3-1.3-1.8c-0.5-0.5-1.2-0.9-1.8-1.2c-1.4-0.6-2.9-0.6-4.3,0c-0.7,0.3-1.3,0.7-1.8,1.2
		c-0.5,0.5-0.9,1.2-1.2,1.8C23.9,11.2,23.8,12,23.8,12.8L23.8,12.8z"/>
	<path class="st1" d="M41.7,5.4v2.2c0.5-0.7,1.2-1.4,2-1.8c0.8-0.4,1.7-0.6,2.6-0.6c1,0,1.9,0.2,2.8,0.6c0.9,0.4,1.7,1,2.4,1.8
		c0.2,0.3,0.5,0.7,0.7,1.1s0.3,0.8,0.4,1.2c0.1,0.4,0.2,0.8,0.2,1.2c0,0.4,0,0.9,0,1.4v7.7h-2v-7.7c0-0.3,0-0.6,0-1
		c0-0.3,0-0.6-0.1-0.9c0-0.3-0.1-0.6-0.2-0.8c-0.1-0.3-0.3-0.5-0.5-0.8c-0.9-1.2-2.3-1.9-3.8-1.9c-0.3,0-0.7,0-1,0.1s-0.7,0.2-1,0.4
		c-0.3,0.2-0.6,0.4-0.9,0.6c-0.2,0.2-0.5,0.5-0.7,0.7c-0.2,0.2-0.3,0.5-0.5,0.9c-0.1,0.3-0.2,0.6-0.2,0.9c0,0.3-0.1,0.6-0.1,0.9v8.6
		h-2V5.4L41.7,5.4z"/>
	<path class="st1" d="M54.8,7.2V5.4h3.1V0.2h2v5.1h3.4v1.8h-3.4V20h-2V7.2H54.8z"/>
	<path class="st1" d="M66.6,13.4c0,0.7,0.2,1.4,0.5,2c0.3,0.6,0.7,1.1,1.2,1.6c0.5,0.5,1.1,0.8,1.7,1.1c0.6,0.2,1.3,0.4,1.9,0.4
		c0.5,0,1.1-0.1,1.6-0.2c0.5-0.1,1-0.3,1.5-0.6c0.5-0.3,0.9-0.6,1.2-1c0.4-0.4,0.7-0.9,0.9-1.4h2.1c-0.2,0.7-0.6,1.4-1.1,2
		c-1,1.2-2.2,2.2-3.7,2.7c-0.7,0.2-1.5,0.4-2.3,0.4c-0.7,0-1.4-0.1-2-0.3c-0.7-0.2-1.3-0.4-1.8-0.7c-0.6-0.3-1.1-0.7-1.6-1.2
		c-0.5-0.5-0.8-1-1.2-1.6c-1-1.8-1.3-3.9-0.8-5.9c0.2-0.6,0.5-1.2,0.8-1.8s0.7-1.1,1.2-1.5c0.5-0.5,1-0.8,1.6-1.2
		c0.6-0.3,1.2-0.6,1.8-0.8c0.7-0.2,1.4-0.2,2.1-0.2c1.1,0,2.2,0.2,3.2,0.7c1,0.5,1.9,1.2,2.6,2.1c0.3,0.4,0.6,0.8,0.9,1.3
		c0.2,0.4,0.4,0.9,0.5,1.3c0.1,0.5,0.2,0.9,0.3,1.4c0,0.5,0.1,1,0.1,1.5L66.6,13.4z M77.9,11.7c-0.1-0.7-0.4-1.3-0.7-1.8
		c-0.4-0.6-0.8-1.1-1.3-1.5c-0.5-0.4-1.1-0.7-1.7-1C73.6,7.2,73,7,72.3,7S71,7.2,70.4,7.4c-1.2,0.5-2.3,1.3-3,2.4
		c-0.3,0.6-0.6,1.2-0.7,1.9L77.9,11.7L77.9,11.7z"/>
	<path class="st1" d="M84.4,5.4v2.2c0.5-0.7,1.2-1.4,2-1.8c0.8-0.4,1.7-0.6,2.6-0.6c1,0,1.9,0.2,2.8,0.6c0.9,0.4,1.7,1,2.4,1.8
		c0.2,0.3,0.5,0.7,0.7,1.1s0.3,0.8,0.4,1.2c0.1,0.4,0.2,0.8,0.2,1.2c0,0.4,0,0.9,0,1.4v7.7h-2v-7.7c0-0.3,0-0.6,0-1
		c0-0.3,0-0.6-0.1-0.9c0-0.3-0.2-0.6-0.3-0.8c-0.1-0.3-0.3-0.5-0.5-0.8c-0.4-0.6-1-1.1-1.7-1.4c-0.7-0.3-1.4-0.5-2.2-0.5
		c-0.3,0-0.7,0-1,0.1s-0.7,0.2-1,0.4c-0.3,0.2-0.6,0.4-0.9,0.6s-0.5,0.5-0.7,0.7c-0.2,0.2-0.3,0.5-0.4,0.9c-0.1,0.3-0.2,0.6-0.2,0.9
		c0,0.3-0.1,0.6-0.1,0.9v8.6h-1.9V5.4L84.4,5.4z"/>
	<path class="st1" d="M97.5,7.2V5.4h3.1V0.2h2v5.1h3.4v1.8h-3.4V20h-2V7.2H97.5z"/>
	<path class="st1" d="M109.4,13.4c0,0.7,0.2,1.4,0.5,2c0.3,0.6,0.7,1.1,1.2,1.6c0.5,0.5,1.1,0.8,1.7,1.1c0.6,0.2,1.3,0.4,2,0.4
		c0.5,0,1.1-0.1,1.6-0.2c0.5-0.1,1-0.3,1.5-0.6c0.5-0.3,0.8-0.6,1.2-1s0.7-0.9,0.9-1.4h2.1c-0.2,0.7-0.7,1.4-1.1,2
		c-0.5,0.6-1,1.2-1.7,1.6c-0.6,0.5-1.3,0.8-2.1,1.1s-1.5,0.4-2.3,0.4c-1.4,0-2.7-0.4-3.9-1c-0.6-0.3-1.1-0.7-1.5-1.2
		c-0.5-0.5-0.8-1-1.2-1.6c-0.3-0.6-0.6-1.2-0.8-1.8c-0.4-1.3-0.4-2.8,0-4.1c0.2-0.6,0.4-1.2,0.7-1.8s0.7-1.1,1.2-1.5
		c0.5-0.5,1-0.8,1.5-1.2c0.6-0.3,1.2-0.6,1.8-0.8c0.7-0.2,1.4-0.2,2-0.2c1.1,0,2.2,0.2,3.2,0.7c1,0.5,1.9,1.2,2.7,2.1
		c0.3,0.4,0.6,0.8,0.8,1.3c0.2,0.4,0.4,0.9,0.5,1.3c0.1,0.5,0.2,0.9,0.2,1.4c0.1,0.5,0.1,1,0.1,1.5L109.4,13.4z M120.6,11.7
		c-0.1-0.7-0.4-1.3-0.7-1.8c-0.3-0.6-0.8-1.1-1.3-1.5c-0.5-0.4-1.1-0.7-1.7-1C116.3,7.2,115.7,7,115,7c-1.3,0-2.6,0.5-3.7,1.3
		c-0.5,0.4-1,0.9-1.3,1.5c-0.3,0.6-0.6,1.2-0.7,1.9L120.6,11.7L120.6,11.7z"/>
	<path class="st1" d="M127.1,5.4v2.2c0.2-0.4,0.4-0.8,0.7-1.1c0.3-0.3,0.7-0.5,1-0.7c0.4-0.2,0.8-0.3,1.2-0.5
		c0.4-0.1,0.9-0.2,1.3-0.2V7l-0.8,0.1c-0.2,0-0.5,0.1-0.7,0.2s-0.4,0.2-0.6,0.3s-0.4,0.3-0.6,0.5c-0.3,0.2-0.6,0.5-0.8,0.8
		c-0.2,0.2-0.3,0.5-0.5,0.9c-0.1,0.3-0.2,0.6-0.2,1c0,0.3,0,0.7,0,1.2v8.2h-2V5.4L127.1,5.4z"/>
</g>
</svg>
