<?xml version="1.0" encoding="utf-8"?>
<!-- Generator: Adobe Illustrator 25.2.0, SVG Export Plug-In . SVG Version: 6.00 Build 0)  -->
<svg version="1.1" id="Layer_1" xmlns="http://www.w3.org/2000/svg" xmlns:xlink="http://www.w3.org/1999/xlink" x="0px" y="0px"
	 viewBox="0 0 30 36.8" style="enable-background:new 0 0 30 36.8;" xml:space="preserve">
<style type="text/css">
	.st0{fill:#AAA8B0;}
	.st1{fill:#00B086;}
</style>
<path class="st0" d="M14.6,11.1h13.8c0.9,0,1.6,0.7,1.6,1.6l0,0c0,0.9-0.7,1.6-1.6,1.6H14.6c-0.9,0-1.6-0.7-1.6-1.6l0,0
	C13.1,11.8,13.8,11.1,14.6,11.1z"/>
<path class="st0" d="M11.1,16.8h17.3c0.9,0,1.6,0.7,1.6,1.6l0,0c0,0.9-0.7,1.6-1.6,1.6H11.1c-0.9,0-1.6-0.7-1.6-1.6l0,0
	C9.5,17.5,10.2,16.8,11.1,16.8z"/>
<path class="st0" d="M14.6,22.5h13.8c0.9,0,1.6,0.7,1.6,1.6l0,0c0,0.9-0.7,1.6-1.6,1.6H14.6c-0.9,0-1.6-0.7-1.6-1.6l0,0
	C13.1,23.2,13.8,22.5,14.6,22.5z"/>
<g>
	<path class="st1" d="M18.4,30.8L18.4,30.8C11.5,30.6,6.1,24.9,6.3,18C6.5,11.4,11.8,6.1,18.4,6l0,0V0l0,0C8.3,0.2,0.2,8.6,0.5,18.8
		c0.2,9.8,8.1,17.7,18,18l0,0V30.8z"/>
	<path class="st1" d="M18.4,0h4.1c1.7,0,3,1.3,3,3l0,0c0,1.7-1.3,3-3,3h-4.1l0,0V0L18.4,0z"/>
	<path class="st1" d="M18.4,30.8h4.1c1.7,0,3,1.3,3,3l0,0c0,1.7-1.3,3-3,3h-4.1l0,0V30.8C18.4,30.8,18.4,30.8,18.4,30.8z"/>
</g>
</svg>
